<svg width="24" height="24" viewBox="0 0 24 24" fill="none" xmlns="http://www.w3.org/2000/svg">
<path fill-rule="evenodd" clip-rule="evenodd" d="M16.1369 4.72825L17.9669 6.55825C20.6549 9.24825 21.9999 10.5922 21.9999 12.2622C21.9999 13.9332 20.6549 15.2772 17.9659 17.9662C15.2769 20.6572 13.9329 22.0002 12.2619 22.0002C10.5919 22.0002 9.24687 20.6552 6.55787 17.9662L4.72787 16.1362C3.18287 14.5912 2.40987 13.8192 2.12287 12.8162C1.83487 11.8132 2.08087 10.7482 2.57287 8.61925L2.85587 7.39125C3.26887 5.59925 3.47587 4.70325 4.08887 4.08925C4.70287 3.47625 5.59887 3.26925 7.39087 2.85625L8.61887 2.57225C10.7489 2.08125 11.8129 1.83525 12.8159 2.12225C13.8189 2.41025 14.5919 3.18325 16.1369 4.72825ZM11.1469 14.3282C10.4739 13.6562 10.4789 12.6902 10.8819 11.9252C10.7821 11.7811 10.736 11.6066 10.7514 11.4321C10.7669 11.2575 10.8431 11.0938 10.9667 10.9695C11.0902 10.8452 11.2534 10.7681 11.4279 10.7517C11.6024 10.7352 11.7772 10.7803 11.9219 10.8792C12.2619 10.6992 12.6349 10.6032 13.0069 10.6072C13.2058 10.6091 13.3958 10.6899 13.5351 10.8319C13.6745 10.9738 13.7517 11.1653 13.7499 11.3642C13.748 11.5632 13.6672 11.7532 13.5252 11.8925C13.3833 12.0319 13.1918 12.1091 12.9929 12.1072C12.7613 12.1158 12.5425 12.2153 12.3839 12.3842C11.9969 12.7712 12.0979 13.1592 12.2069 13.2682C12.3169 13.3772 12.7039 13.4782 13.0909 13.0912C13.8749 12.3072 15.2289 12.0472 16.0959 12.9142C16.7689 13.5872 16.7639 14.5532 16.3609 15.3182C16.46 15.4624 16.5056 15.6366 16.4899 15.8109C16.4741 15.9851 16.3979 16.1483 16.2745 16.2723C16.1511 16.3963 15.9883 16.4733 15.8141 16.4899C15.64 16.5065 15.4655 16.4617 15.3209 16.3632C14.8721 16.6094 14.3516 16.6914 13.8489 16.5952C13.6539 16.5552 13.4829 16.4394 13.3734 16.2732C13.2638 16.107 13.2248 15.9042 13.2649 15.7092C13.3049 15.5143 13.4208 15.3433 13.5869 15.2337C13.7531 15.1242 13.9559 15.0852 14.1509 15.1252C14.3279 15.1622 14.6139 15.1042 14.8589 14.8592C15.2459 14.4712 15.1449 14.0842 15.0359 13.9752C14.9259 13.8662 14.5389 13.7652 14.1519 14.1522C13.3679 14.9362 12.0139 15.1962 11.1469 14.3282ZM10.0209 10.2932C10.2066 10.1075 10.3538 9.88698 10.4543 9.64431C10.5548 9.40163 10.6065 9.14154 10.6064 8.87889C10.6064 8.61624 10.5546 8.35617 10.454 8.11353C10.3535 7.87089 10.2061 7.65043 10.0204 7.46475C9.83461 7.27906 9.6141 7.13177 9.37143 7.0313C9.12875 6.93083 8.86866 6.87915 8.60601 6.87919C8.34336 6.87924 8.08329 6.93102 7.84065 7.03157C7.59801 7.13213 7.37756 7.27949 7.19187 7.46525C6.81685 7.84039 6.60622 8.34915 6.60632 8.8796C6.60641 9.41005 6.81722 9.91873 7.19237 10.2937C7.56752 10.6688 8.07627 10.8794 8.60672 10.8793C9.13717 10.8792 9.64585 10.6684 10.0209 10.2932Z" fill="#475259"/>
</svg>
