<svg width="24" height="24" viewBox="0 0 24 24" fill="none" xmlns="http://www.w3.org/2000/svg">
<path d="M11 11.825V15C11 15.2833 11.096 15.521 11.288 15.713C11.48 15.905 11.7173 16.0007 12 16C12.2833 16 12.521 15.904 12.713 15.712C12.905 15.52 13.0007 15.2827 13 15V11.85L13.9 12.725C14.1 12.9083 14.3333 13.0043 14.6 13.013C14.8667 13.0217 15.1 12.9257 15.3 12.725C15.5 12.525 15.6 12.2877 15.6 12.013C15.6 11.7383 15.5 11.5007 15.3 11.3L12.7 8.7C12.5 8.5 12.2667 8.4 12 8.4C11.7333 8.4 11.5 8.5 11.3 8.7L8.7 11.3C8.5 11.5 8.40434 11.7333 8.413 12C8.42167 12.2667 8.52567 12.5 8.725 12.7C8.925 12.8833 9.15834 12.9793 9.425 12.988C9.69167 12.9967 9.925 12.9007 10.125 12.7L11 11.825ZM4 20C3.45 20 2.979 19.804 2.587 19.412C2.195 19.02 1.99934 18.5493 2 18V6C2 5.45 2.196 4.979 2.588 4.587C2.98 4.195 3.45067 3.99934 4 4H20C20.55 4 21.021 4.196 21.413 4.588C21.805 4.98 22.0007 5.45067 22 6V18C22 18.55 21.804 19.021 21.412 19.413C21.02 19.805 20.5493 20.0007 20 20H4Z" fill="#475259"/>
</svg>
