<svg width="20" height="20" viewBox="0 0 20 20" fill="none" xmlns="http://www.w3.org/2000/svg">
<path d="M8.003 4.07032C8.55 3.99232 9 4.44832 9 5.00032V11.0003H15C15.552 11.0003 16.008 11.4503 15.93 11.9973C15.6738 13.746 14.7657 15.3332 13.388 16.4403C12.0104 17.5473 10.265 18.0925 8.50211 17.9663C6.73923 17.8401 5.08928 17.052 3.88331 15.76C2.67734 14.468 2.00458 12.7677 2 11.0003C2.00009 9.31642 2.60701 7.68895 3.70953 6.41617C4.81205 5.1434 6.33633 4.31057 8.003 4.07032ZM17.062 10.0003C17.56 10.0003 17.989 9.63432 17.999 9.13632L18 9.00032C18 8.0696 17.8145 7.14821 17.4542 6.29006C17.0938 5.43191 16.566 4.65423 15.9015 4.00251C15.2371 3.3508 14.4493 2.83814 13.5843 2.49453C12.7194 2.15091 11.7945 1.98324 10.864 2.00132C10.366 2.01132 10 2.44132 10 2.93832V9.00032C10 9.26554 10.1054 9.51989 10.2929 9.70743C10.4804 9.89496 10.7348 10.0003 11 10.0003H17.062Z" fill="#475259"/>
</svg>
