<svg width="24" height="24" viewBox="0 0 24 24" fill="none" xmlns="http://www.w3.org/2000/svg">
<path d="M19.1745 4L14.1049 5.9037L15.9243 7.05073C12.6741 11.1436 7.97249 13.6647 4 14.6242L5.12537 16.6741C9.58899 15.2193 14.3147 12.595 17.3586 7.95873L18.7446 8.83233L19.1745 4ZM19.4394 8.01376L19.2743 9.89854L17.5099 8.78418C17.448 8.87704 17.3826 8.96647 17.3173 9.05933V20.0516H20V8.01376H19.4394ZM14.2597 12.4162C13.8229 12.7945 13.3723 13.1522 12.9149 13.4893V20.0516H15.5976V12.4162H14.2597ZM10.0052 15.3052C9.50989 15.5666 9.01462 15.8074 8.51247 16.0344V20.0516H11.1952V15.3052H10.0052ZM4.11006 16.8186V20.0516H6.79278V16.8186H6.59742C6.0877 17.0077 5.57833 17.1831 5.07206 17.3448L4.82923 17.4205L4.49905 16.8186H4.11006Z" fill="#475259"/>
</svg>
